<svg xmlns="http://www.w3.org/2000/svg" viewBox="0 0 512 512">
  <defs>
    <linearGradient id="bg" x1="0%" y1="0%" x2="100%" y2="100%">
      <stop offset="0%" stop-color="#7c3aed"/>
      <stop offset="100%" stop-color="#4f46e5"/>
    </linearGradient>
  </defs>
  <rect width="512" height="512" rx="96" fill="url(#bg)"/>
  <path d="M256 128c-74.4 0-136 48.1-136 130.3 0 81 91.5 155.1 132.3 177.8 5.6 3.4 13.4 3.4 19 0 40.8-22.8 132.3-96.8 132.3-177.8C392 176.1 330.4 128 256 128z" fill="#ffffff" opacity="0.95"/>
  <path d="M256 176c-40.9 0-74 33.1-74 74s33.1 74 74 74 74-33.1 74-74-33.1-74-74-74zm0 112c-21.5 0-38-17.5-38-38s17.5-38 38-38 38 17.5 38 38-17.5 38-38 38z" fill="#7c3aed"/>
</svg>
